<svg id="visual" viewBox="0 0 1920 1080" width="1920" height="1080" xmlns="http://www.w3.org/2000/svg" xmlns:xlink="http://www.w3.org/1999/xlink" version="1.1"><path d="M0 622L45.7 636.5C91.3 651 182.7 680 274.2 713.3C365.7 746.7 457.3 784.3 548.8 797.7C640.3 811 731.7 800 823 753.2C914.3 706.3 1005.7 623.7 1097 606.3C1188.3 589 1279.7 637 1371.2 679.3C1462.7 721.7 1554.3 758.3 1645.8 753.2C1737.3 748 1828.7 701 1874.3 677.5L1920 654L1920 1081L1874.3 1081C1828.7 1081 1737.3 1081 1645.8 1081C1554.3 1081 1462.7 1081 1371.2 1081C1279.7 1081 1188.3 1081 1097 1081C1005.7 1081 914.3 1081 823 1081C731.7 1081 640.3 1081 548.8 1081C457.3 1081 365.7 1081 274.2 1081C182.7 1081 91.3 1081 45.7 1081L0 1081Z" fill="#6495bb"></path><path d="M0 920L45.7 913.7C91.3 907.3 182.7 894.7 274.2 854.5C365.7 814.3 457.3 746.7 548.8 727C640.3 707.3 731.7 735.7 823 763.2C914.3 790.7 1005.7 817.3 1097 813C1188.3 808.7 1279.7 773.3 1371.2 792.2C1462.7 811 1554.3 884 1645.8 879.8C1737.3 875.7 1828.7 794.3 1874.3 753.7L1920 713L1920 1081L1874.3 1081C1828.7 1081 1737.3 1081 1645.8 1081C1554.3 1081 1462.7 1081 1371.2 1081C1279.7 1081 1188.3 1081 1097 1081C1005.7 1081 914.3 1081 823 1081C731.7 1081 640.3 1081 548.8 1081C457.3 1081 365.7 1081 274.2 1081C182.7 1081 91.3 1081 45.7 1081L0 1081Z" fill="#477da8"></path><path d="M0 918L45.7 909.5C91.3 901 182.7 884 274.2 894.7C365.7 905.3 457.3 943.7 548.8 958C640.3 972.3 731.7 962.7 823 977.7C914.3 992.7 1005.7 1032.3 1097 1047.8C1188.3 1063.3 1279.7 1054.7 1371.2 1018.8C1462.7 983 1554.3 920 1645.8 884C1737.3 848 1828.7 839 1874.3 834.5L1920 830L1920 1081L1874.3 1081C1828.7 1081 1737.3 1081 1645.8 1081C1554.3 1081 1462.7 1081 1371.2 1081C1279.7 1081 1188.3 1081 1097 1081C1005.7 1081 914.3 1081 823 1081C731.7 1081 640.3 1081 548.8 1081C457.3 1081 365.7 1081 274.2 1081C182.7 1081 91.3 1081 45.7 1081L0 1081Z" fill="#276695"></path></svg>