<svg id="visual" viewBox="0 0 1920 1080" width="1920" height="1080" xmlns="http://www.w3.org/2000/svg" xmlns:xlink="http://www.w3.org/1999/xlink" version="1.1"><path d="M0 418L64 425.2C128 432.3 256 446.7 384 490.7C512 534.7 640 608.3 768 643.8C896 679.3 1024 676.7 1152 673.7C1280 670.7 1408 667.3 1536 621.7C1664 576 1792 488 1856 444L1920 400L1920 1081L1856 1081C1792 1081 1664 1081 1536 1081C1408 1081 1280 1081 1152 1081C1024 1081 896 1081 768 1081C640 1081 512 1081 384 1081C256 1081 128 1081 64 1081L0 1081Z" fill="#6495ba"></path><path d="M0 596L64 611.7C128 627.3 256 658.7 384 695.2C512 731.7 640 773.3 768 786.5C896 799.7 1024 784.3 1152 781.3C1280 778.3 1408 787.7 1536 759.2C1664 730.7 1792 664.3 1856 631.2L1920 598L1920 1081L1856 1081C1792 1081 1664 1081 1536 1081C1408 1081 1280 1081 1152 1081C1024 1081 896 1081 768 1081C640 1081 512 1081 384 1081C256 1081 128 1081 64 1081L0 1081Z" fill="#477da7"></path><path d="M0 876L64 861C128 846 256 816 384 812.8C512 809.7 640 833.3 768 856C896 878.7 1024 900.3 1152 901.5C1280 902.7 1408 883.3 1536 891.2C1664 899 1792 934 1856 951.5L1920 969L1920 1081L1856 1081C1792 1081 1664 1081 1536 1081C1408 1081 1280 1081 1152 1081C1024 1081 896 1081 768 1081C640 1081 512 1081 384 1081C256 1081 128 1081 64 1081L0 1081Z" fill="#276695"></path></svg>