<svg width="315" height="86" viewBox="0 0 315 86" fill="none" xmlns="http://www.w3.org/2000/svg">
<path d="M82.7664 16.8018V67.7719H72.3747V16.8018H82.7664Z" fill="black"/>
<path d="M125.18 33.4059V67.8848C125.18 78.5871 116.85 85.1667 106.656 85.1667C96.8291 85.1667 89.4871 79.0672 88.7812 70.4545L99.1446 70.511C99.5682 74.182 102.787 75.7633 107.023 75.7633C111.033 75.7633 114.76 73.6172 114.76 68.026V63.6209C112.106 65.3434 108.717 66.36 104.933 66.36C95.4454 66.36 87.8493 58.6792 87.8493 49.8406C87.8493 39.5618 95.4736 32.6717 104.933 32.6717C108.746 32.6717 112.106 33.6883 114.76 35.4108V33.5471L125.18 33.4059ZM114.789 53.7092V45.3224C112.671 42.2445 109.734 41.2279 106.825 41.2279C101.714 41.2279 98.1563 44.6447 98.1563 49.8406C98.1563 53.6527 101.714 57.832 106.825 57.832C109.734 57.8038 112.671 56.7589 114.789 53.7092Z" fill="black"/>
<path d="M166.634 50.1794C166.634 60.797 158.784 68.3649 148.251 68.3649C137.633 68.3649 129.783 60.797 129.783 50.1794C129.783 39.6465 137.633 31.9375 148.251 31.9375C158.784 31.9375 166.634 39.6465 166.634 50.1794ZM156.61 50.1794C156.61 45.1813 153.334 41.1432 148.251 41.1432C143.112 41.1432 139.836 45.1813 139.836 50.1794C139.836 55.3188 143.112 59.1592 148.251 59.1592C153.306 59.131 156.61 55.3188 156.61 50.1794Z" fill="black"/>
<path d="M231.159 33.4624V67.7154L220.965 67.7719V65.8234C218.31 67.546 214.922 68.619 211.138 68.619C201.65 68.619 194.053 60.5711 194.053 50.6595C194.053 40.6914 201.678 32.6435 211.138 32.6435C214.95 32.6435 218.31 33.7165 220.965 35.439V33.4906L231.159 33.4624ZM220.965 55.9118V45.4072C218.818 42.3574 215.825 41.5103 212.832 41.5103C207.608 41.5103 203.993 45.6895 203.993 50.6877C203.993 55.6294 207.608 59.8087 212.832 59.8087C215.825 59.7804 218.818 58.9615 220.965 55.9118Z" fill="black"/>
<path d="M273.064 49.1628V67.7719H263.04V50.3771C263.04 44.7859 260.244 41.8209 255.274 41.8209C252.676 41.8209 249.824 43.3175 247.367 46.1978V67.7719H237.117V33.5188H247.367V36.1168C250.163 33.8859 253.41 32.6717 257.279 32.6717C266.428 32.6717 273.064 39.11 273.064 49.1628Z" fill="black"/>
<path d="M67.6307 67.7436H57.0413L50.1512 42.1315L35.3261 67.7436H23.4943L46.3673 28.0971L42.6963 14.3168L11.8318 67.7719H0L39.11 0H49.4735L54.0198 16.83H64.7221L57.4084 29.5372L67.6307 67.7436Z" fill="black"/>
<path d="M314.462 16.8018V67.7719H304.07V65.8234C301.415 67.546 298.027 68.619 294.243 68.619C284.755 68.619 277.159 60.5711 277.159 50.603C277.159 40.6914 284.783 32.6434 294.243 32.6434C298.055 32.6434 301.415 33.7165 304.07 35.439V16.7735L314.462 16.8018ZM304.07 55.94V45.3507C301.896 42.2727 298.874 41.4256 295.881 41.4256C290.628 41.4256 286.986 45.6331 286.986 50.603C286.986 55.6577 290.628 59.8652 295.881 59.8652C298.874 59.8652 301.896 59.018 304.07 55.94Z" fill="black"/>
<path d="M192.19 42.1598C189.931 42.4421 184.622 42.6963 181.516 46.9885V67.8001H171.265V33.5753H181.516V36.145C183.859 34.1401 187.389 32.9541 192.19 33.4341" fill="black"/>
</svg>
