<svg width="227" height="227" viewBox="0 0 227 227" fill="none" xmlns="http://www.w3.org/2000/svg">
<path d="M113.386 226.773C176.008 226.773 226.773 176.008 226.773 113.386C226.773 50.7649 176.008 0 113.386 0C50.7649 0 0 50.7649 0 113.386C0 176.008 50.7649 226.773 113.386 226.773Z" fill="url(#paint0_linear_21_14)"/>
<path d="M113.386 219.459C171.969 219.459 219.459 171.969 219.459 113.387C219.459 54.8042 171.969 7.31395 113.386 7.31395C54.8042 7.31395 7.3139 54.8042 7.3139 113.387C7.3139 171.969 54.8042 219.459 113.386 219.459Z" fill="black"/>
<path d="M74.6308 107.412L93.3083 88.6889L105.035 100.416C109.101 104.481 114.208 106.043 118.464 101.787C122.721 97.5306 120.167 93.465 116.101 89.3517L103.194 76.4445L95.4421 68.7356C92.3686 65.662 88.0624 63.8665 83.8084 68.1227C80.0742 71.8569 81.3295 75.9928 83.5133 78.7713L60.4501 101.646C50.9456 111.339 54.682 121.22 61.3013 127.84L80.4034 146.846C82.1059 148.549 88.7252 155.5 94.0211 150.061C97.0947 146.987 96.3842 142.259 94.6839 140.368L72.7444 118.619C68.815 114.694 70.7059 111.146 74.6308 107.412ZM166.455 98.3341L147.4 79.4682C145.698 77.7657 139.078 70.8149 133.782 76.2539C130.709 79.3274 131.419 84.0558 133.12 85.9467L155.059 107.696C158.984 111.62 157.093 115.166 153.168 118.903L134.445 137.626L122.718 125.899C118.653 121.833 113.545 120.271 109.289 124.528C105.033 128.784 107.587 132.849 111.652 136.963L124.559 149.87L132.336 157.647C135.41 160.721 139.737 162.636 143.991 158.38C147.772 154.598 146.438 150.406 144.199 147.627L167.301 124.525C176.999 114.835 173.262 104.953 166.455 98.3341Z" fill="white"/>
<defs>
<linearGradient id="paint0_linear_21_14" x1="33.2101" y1="193.563" x2="193.563" y2="33.2101" gradientUnits="userSpaceOnUse">
<stop stop-color="#29C1FC"/>
<stop offset="0.502" stop-color="#AB00FF"/>
<stop offset="0.508" stop-color="#AC03FC"/>
<stop offset="0.641" stop-color="#C840B8"/>
<stop offset="0.76" stop-color="#DE7082"/>
<stop offset="0.863" stop-color="#EE935B"/>
<stop offset="0.945" stop-color="#F7A844"/>
<stop offset="0.996" stop-color="#FBB03B"/>
</linearGradient>
</defs>
</svg>
