<svg width="312" height="75" viewBox="0 0 312 75" fill="none" xmlns="http://www.w3.org/2000/svg">
<path d="M84.3341 38.3149C84.3341 26.1637 90.7975 20.114 103.517 20.114C108.688 20.114 111.791 21.0447 114.376 22.234L112.152 28.3354C108.843 27.4564 107.447 27.0945 103.569 27.0428C97.2608 26.9393 92.8141 30.5071 92.8141 37.8495C92.8141 45.1919 97.4677 49.0699 104.552 49.0699C107.964 49.0699 109.981 48.7597 112.67 48.0875L114.428 54.3957C111.067 55.6367 108.171 56.1021 103.621 56.1021C90.9009 56.0504 84.3341 49.7938 84.3341 38.3149ZM138.058 42.0895C138.058 37.7461 136.972 34.4369 132.422 34.4369C127.975 34.4369 126.734 37.7461 126.734 42.1412C126.734 46.7948 128.13 49.587 132.525 49.587C136.972 49.587 138.058 46.6914 138.058 42.0895ZM118.409 42.2963C118.409 33.351 123.993 27.8701 132.577 27.8701C142.194 27.8701 146.486 33.2476 146.486 42.0895C146.486 51.2933 140.436 56.2055 132.163 56.2055C123.218 56.1538 118.409 50.7763 118.409 42.2963ZM149.123 28.5423H157.965L162.515 43.1753L163.911 48.5529L165.462 43.1753L170.53 28.5423H179.165L168.668 55.5333H158.896L149.123 28.5423ZM198.089 48.708V44.468L194.056 44.5714C191.626 44.6231 189.868 45.3987 189.868 47.4153C189.868 49.0182 191.419 49.6904 192.867 49.6904C194.418 49.6387 196.331 49.1733 198.089 48.708ZM181.853 47.8807C181.853 41.0554 188.11 39.6593 193.436 39.6593H198.141V37.9529C198.141 35.5744 196.59 34.9022 193.229 34.9022C190.54 34.9022 187.696 35.471 185.163 36.0915L183.508 30.0935C186.559 28.9042 190.127 27.9218 194.418 27.9218C202.795 27.9218 206.156 30.3003 206.156 36.4017V48.3977C206.156 49.2768 207.035 49.4836 208.586 49.5353L208.276 55.7918C207.655 55.8435 206.983 55.8436 206.363 55.8436C203.105 55.8436 199.641 55.2748 198.917 52.9997C196.952 54.5509 194.108 56.0504 191.161 56.0504C185.214 55.9987 181.853 53.2582 181.853 47.8807ZM214.739 18.2526H223.012V55.5333H214.739V18.2526ZM245.867 39.2973C245.97 36.0398 244.522 33.7647 241.885 33.7647C239.041 33.7647 237.232 35.7295 237.077 39.2973H245.867ZM228.648 42.4514C228.648 31.4379 234.439 27.9218 242.609 27.9218C251.141 27.9218 254.398 33.4544 254.398 41.6241V44.5714H236.87C236.818 48.8114 240.179 49.6387 244.471 49.6387C246.28 49.6387 249.383 49.0699 252.175 48.5529L253.416 54.8094C250.417 55.6884 246.539 56.1538 243.281 56.1538C234.388 56.1538 228.648 53.2582 228.648 42.4514ZM259.983 28.5423H268.256V31.2827C269.911 30.0418 273.427 27.8701 277.046 27.8701C285.526 27.8701 286.095 32.5237 286.095 38.6768V55.585H277.873V39.349C277.873 35.6261 277.046 35.0056 274.254 35.0056C271.772 35.0056 269.549 35.7812 268.204 36.4534V55.585H259.931V28.5423H259.983ZM294.213 47.1568V34.6437H290.283V28.5423H294.213V23.0096H302.434V28.5423H310.811V34.6437H302.434V47.1051C302.434 49.0699 303.158 49.225 305.382 49.225C307.191 49.225 311.224 48.6563 311.224 48.6563L312 55.1197C310.087 55.6884 307.45 56.0504 305.485 56.0504C300.314 56.1021 294.213 56.3606 294.213 47.1568ZM37.229 17.3736V0C16.6497 0 0 16.6497 0 37.229C0 57.8084 16.6497 74.4581 37.229 74.4581V57.0845C26.2672 57.0845 17.3735 48.1909 17.3735 37.229C17.3735 26.2154 26.2672 17.3736 37.229 17.3736Z" fill="#1D1D1B"/>
<path d="M57.1879 17.3735C56.0504 17.3735 54.9128 17.1667 53.8787 16.7013C52.8445 16.236 51.8621 15.6155 51.0865 14.8399C50.2592 14.0126 49.6387 13.0819 49.225 12.0477C48.8114 11.0136 48.5529 9.87603 48.5529 8.73848C48.5529 7.60092 48.7597 6.46337 49.225 5.42923C49.6387 4.39509 50.3109 3.41265 51.0865 2.63705C51.9138 1.80974 52.8445 1.18926 53.8787 0.775601C54.9128 0.361945 56.0504 0.103409 57.1879 0.103409C59.5147 0.103409 61.6864 1.03413 63.3411 2.63705C64.944 4.23997 65.8747 6.46337 65.8747 8.79019C65.8747 11.117 64.944 13.2887 63.3411 14.9433C61.6864 16.4428 59.463 17.3735 57.1879 17.3735Z" fill="#00D8D5"/>
<path d="M57.0328 74.4581C54.706 74.4581 52.5343 73.5273 50.8797 71.9244C49.2768 70.3215 48.346 68.0981 48.346 65.7713C48.346 63.4445 49.2768 61.2728 50.8797 59.6182C52.4826 58.0152 54.706 57.0845 57.0328 57.0845C59.3596 57.0845 61.5313 58.0152 63.1859 59.6182C64.7889 61.2211 65.7196 63.4445 65.7196 65.7713C65.7196 68.0981 64.7889 70.2698 63.1859 71.9244C61.5313 73.5273 59.3079 74.4581 57.0328 74.4581Z" fill="#FF4C8B"/>
<path d="M57.0845 37.229C57.0845 48.1909 48.1909 57.0845 37.229 57.0845V17.3736C48.1909 17.3736 57.0845 26.2154 57.0845 37.229Z" fill="#1D1D1B"/>
</svg>
