<svg xmlns="http://www.w3.org/2000/svg" xmlns:xlink="http://www.w3.org/1999/xlink" width="354.212" height="79.832" viewBox="0 0 354.212 79.832">
  <defs>
    <linearGradient id="linear-gradient" x1="0.706" y1="0.704" x2="0.169" y2="0.43" gradientUnits="objectBoundingBox">
      <stop offset="0" stop-color="#30bcd0"/>
      <stop offset="1" stop-color="#ca28cc"/>
    </linearGradient>
  </defs>
  <g id="Сгруппировать_4193" data-name="Сгруппировать 4193" transform="translate(0)">
    <g id="_54915fc0-bc2e-446d-96b2-2879637e3499" data-name="54915fc0-bc2e-446d-96b2-2879637e3499" transform="translate(102.674 13.306)">
      <path id="Контур_424" data-name="Контур 424" d="M113.5,185.684V137h-9.728v48.683Zm44-28.02c-.755-6.553-5.342-10.483-13.3-10.483a14.639,14.639,0,0,0-9.021,2.57l-2.924,4.486v-6.1H122.52v37.547h9.726V168.55c0-10.433,3.729-14.566,8.467-14.566s6.9,2.723,7.207,6.653c.151,1.916.151,3.679.151,5.242v19.805H157.8V164.518A51.339,51.339,0,0,0,157.5,157.664Zm44.4-9.527H191.363l-9.222,30.189-9.475-30.189H161.881L176.5,185.684h10.886ZM234.5,171.02l4.788,14.664h10.583L232.64,137h-12.2l-17.538,48.683h10.33l4.89-14.664Zm-8.115-25.7,5.645,17.992H220.6Zm46.719,1.916a10.036,10.036,0,0,0-6.45,2.52l-2.974,5.241v-6.854h-9.726v37.547h9.726V168.448c0-10.079,4.032-13.658,12.146-13.1v-7.812A8.986,8.986,0,0,0,273.109,147.231Zm23.536-.05c-10.28,0-18.747,7.157-18.747,20.008,0,13,7.661,19.5,17.891,19.5,9.425,0,16.329-4.738,17.942-14.011H304c-1.008,4.737-3.829,7.155-7.609,7.155-4.888,0-8.417-3.98-8.417-13.254,0-8.567,3.529-12.6,8.467-12.6,4.032,0,6.854,2.269,7.762,7.712h9.575C313.075,153.38,306.825,147.181,296.645,147.181Zm58.361,10.483c-.755-6.553-5.342-10.483-13.355-10.483a14.738,14.738,0,0,0-9.021,2.57l-2.872,4.486V133.473h-9.726v52.211h9.726V168.55c0-10.433,3.729-14.465,8.467-14.566,4.737,0,6.9,2.723,7.207,6.653.1,1.916.1,3.679.1,5.242v19.805h9.778V164.518A61.878,61.878,0,0,0,355.006,157.664Z" transform="translate(-103.771 -133.473)" fill="#000000"/>
    </g>
    <path id="Объединение_20" data-name="Объединение 20" d="M42.186,79.827c-5.822-.245-11.648-.385-17.471-.552Q15.09,79,5.465,78.737c-.591-.013-1.184-.062-1.776-.069-.334,0-.424-.141-.476-.463a2.624,2.624,0,0,1,.334-1.689Q12.726,58.666,21.883,40.8q4.786-9.321,9.578-18.645a2.123,2.123,0,0,0,.178-.349c.171-.56.474-.548.969-.346,3.338,1.358,6.69,2.684,10.04,4.013Q56.625,31.034,70.61,36.571a1.771,1.771,0,0,1,1.129,1.114c.213.579.47,1.145.715,1.729-.347.19-.6-.071-.842-.164q-18.987-7.186-37.965-14.4c-.853-.323-.855-.322-1.291.508Q19.1,50.793,5.853,76.225a1.949,1.949,0,0,0-.349.881q20.119.749,40.233,1.494a5.8,5.8,0,0,1-3.349,1.233C42.321,79.832,42.254,79.83,42.186,79.827Zm6.509-3.006q-8.675-.481-17.349-.932c-5.72-.294-11.438-.564-17.159-.844q-2.167-.109-4.336-.225c-.352-.022-.7-.066-1.144-.112.215-.431.378-.776.556-1.114Q19.936,53.419,30.614,33.247q1.289-2.434,2.577-4.873c.389-.733.394-.731,1.163-.455Q46.98,32.475,59.6,37.027c4.406,1.589,8.809,3.192,13.221,4.764a1.605,1.605,0,0,1,1.151,1.075c.206.638.515,1.247.793,1.895-.427.141-.71-.1-1-.194q-19.222-6.529-38.43-13.1c-.856-.291-.863-.3-1.263.446Q23.462,51.677,12.845,71.437a.622.622,0,0,0-.113.508c13.586.956,27.214,1.834,40.823,2.781.092.335-.171.335-.329.412-.881.435-1.783.835-2.64,1.312a3.175,3.175,0,0,1-1.592.38C48.9,76.83,48.8,76.827,48.695,76.822ZM2.814,72.7a5.209,5.209,0,0,1,.755-3.736q13.2-26.343,26.336-52.718c.526-1.053.526-1.053,1.6-.589q18.452,7.976,36.911,15.94a1.825,1.825,0,0,1,1.2,1.177,15.791,15.791,0,0,0,.625,1.508c-.244.2-.4.039-.573-.031l-37.5-15.554c-.955-.395-.955-.4-1.417.516Q17.06,46.284,3.358,73.351c-.094.187-.112.458-.531.6A5.628,5.628,0,0,0,2.814,72.7Zm54.595,0c-1.9-.174-3.8-.335-5.7-.5q-4.031-.35-8.062-.688-3.981-.339-7.965-.684-4.129-.351-8.258-.7c-2.653-.229-5.308-.451-7.961-.7a19.305,19.305,0,0,1-2.945-.3,2.36,2.36,0,0,1,.4-.9q8.966-16.4,17.938-32.8a2.733,2.733,0,0,0,.188-.345c.156-.428.377-.479.828-.327,2.175.726,4.369,1.393,6.556,2.092q16.295,5.208,32.591,10.406a1.938,1.938,0,0,1,1.4,1.323c.212.613.5,1.2.842,2L36.287,38.353,20.957,65.9c13.938,1.491,27.755,2.967,41.556,4.439.073.411-.245.4-.415.486-1.057.528-2.133,1.011-3.181,1.554a2.6,2.6,0,0,1-1.254.322C57.579,72.7,57.494,72.7,57.409,72.692Zm8.872-4.747c-4.263-.6-8.532-1.158-12.8-1.718-3.78-.494-7.562-.963-11.342-1.455s-7.56-1.01-11.338-1.51c-1.723-.228-3.446-.444-5.266-.676.949-1.675,1.852-3.271,2.752-4.867q4.22-7.448,8.44-14.9c.5-.87.3-.863,1.343-.576q19.816,5.46,39.639,10.887a1.391,1.391,0,0,1,1.1.967,22.508,22.508,0,0,1,.919,2.374L73.86,55.007q-17.41-4.374-34.825-8.738c-.381-.1-.761-.3-1.077.259-2.289,4.016-4.614,8.011-7.036,12.2L72.91,65.4c-.152.381-.482.405-.728.531-1.025.518-2.1.951-3.092,1.522A3.993,3.993,0,0,1,67.035,68,5.512,5.512,0,0,1,66.281,67.945ZM2.245,64.913a1.949,1.949,0,0,1,.28-.929l26.069-53.59c.086-.176.188-.343.273-.523a.325.325,0,0,1,.486-.159c.3.132.6.277.893.416Q48.309,18.5,66.376,26.861a2.058,2.058,0,0,1,1.242,1.271c.153.463.372.906.659,1.591-12.964-5.8-25.718-11.513-38.52-17.247L2.631,67.526A9.673,9.673,0,0,1,2.245,64.913ZM76.221,62.34c-4.994-.976-9.993-1.923-14.988-2.879s-10-1.914-14.993-2.869q-4.4-.842-8.8-1.678a2.641,2.641,0,0,1-.928-.292c.831-1.41,1.645-2.757,2.423-4.125.215-.378.415-.45.856-.347,4,.923,8,1.8,12,2.7q10.753,2.422,21.5,4.858c2.4.539,4.8,1.1,7.207,1.589.707.143.82.661,1.034,1.164.327.766.329.766-.41,1.133-.144.074-.294.137-.443.21a5.5,5.5,0,0,1-2.438.846A11.7,11.7,0,0,1,76.221,62.34ZM2.249,57.767q12.527-26.278,25-52.584c.028-.058.059-.117.089-.175.35-.729.353-.733,1.048-.392q4.277,2.109,8.553,4.219,13.55,6.662,27.113,13.3a3.127,3.127,0,0,1,1.832,1.993c.082.273.217.529.418,1.01-6.48-3.1-12.748-6.1-19.016-9.1S34.739,10.064,28.376,7.028L2.181,61.54C1.955,60.264,1.633,59.058,2.249,57.767Zm-.5-5.321q8.618-18.553,17.232-37.107,3.147-6.782,6.284-13.565A12.675,12.675,0,0,1,26.235.3c.23-.362.461-.362.816-.172,1.448.768,2.91,1.514,4.366,2.265Q47.207,10.522,63,18.641c.821.42.984,1.145,1.166,1.992l-2-1Q45.177,11.043,28.185,2.456c-.116-.059-.237-.114-.354-.172-.742-.37-.749-.372-1.1.381L13.1,31.687q-5.538,11.8-11.08,23.591c-.082.179-.172.352-.267.544A4.932,4.932,0,0,1,1.749,52.446Zm-.278-5.6Q9.5,29.337,17.444,11.786a19.658,19.658,0,0,1,2.411-3.344,7.246,7.246,0,0,1,1.272-1.508c-.051.749-18.283,40.736-19.9,43.639A6.83,6.83,0,0,1,1.471,46.848Zm-.4-4.963Q5.8,31.413,10.426,20.893a15.566,15.566,0,0,1,2.127-3.17A8.45,8.45,0,0,1,13.8,16.232l.2.141L1,45.24A4.765,4.765,0,0,1,1.066,41.885ZM.783,36.949c1.354-2.908,2.588-5.872,3.864-8.816a19.563,19.563,0,0,1,2.8-3.83c0,.737-6.153,14.8-6.9,15.9A4.617,4.617,0,0,1,.783,36.949ZM.14,35.637c-.047-.584-.1-1.169-.139-1.752a.645.645,0,0,1,.183-.44c.582-.733,1.159-1.471,1.737-2.206l.227.1L.312,35.654C.254,35.647.2,35.643.14,35.637Z" fill="url(#linear-gradient)"/>
  </g>
</svg>
