<svg width="300" height="300" viewBox="0 0 300 300" fill="none" xmlns="http://www.w3.org/2000/svg">
<g filter="url(#filter0_d_1_61)">
<path d="M150 292C178.876 292 207.104 283.437 231.113 267.395C255.123 251.352 273.836 228.55 284.886 201.872C295.937 175.194 298.828 145.838 293.195 117.517C287.561 89.1956 273.656 63.1809 253.238 42.7624C232.819 22.344 206.804 8.4388 178.483 2.80535C150.162 -2.82809 120.806 0.0631904 94.1282 11.1136C67.4502 22.164 44.6481 40.8772 28.6054 64.8867C12.5628 88.8963 4 117.124 4 146L150 146L150 292Z" fill="black"/>
<rect x="4" y="145" width="146" height="147" fill="black"/>
</g>
<path d="M192.808 263.718C214.433 255.372 233.284 241.088 247.208 222.496C261.131 203.905 269.566 181.756 271.547 158.58C273.529 135.404 268.978 112.136 258.415 91.4339C247.852 70.7315 231.702 53.4299 211.81 41.5055C191.918 29.5812 169.087 23.515 145.925 24C122.763 24.485 100.203 31.5016 80.8242 44.2483C61.445 56.995 46.0275 74.9577 36.3329 96.0842C26.6384 117.211 22.0576 140.9 25 163.973H32H37C36 144.473 39.3962 120.179 48.1553 101.091C56.9145 82.0025 69.8445 65.773 87.3539 54.2561C104.863 42.7393 125.246 36.3997 146.173 35.9615C167.101 35.5232 187.729 41.0041 205.702 51.778C223.674 62.5518 238.266 78.1841 247.81 96.889C257.354 115.594 261.466 136.617 259.675 157.557C257.885 178.497 249.5 198.473 237.684 215.306C224 230.473 217 236.973 198 247.473L192.808 263.718Z" fill="white"/>
<rect x="24" y="176" width="15" height="93" fill="white"/>
<rect x="79" y="176" width="15" height="92" fill="white"/>
<rect x="78.8817" y="176.182" width="18.0264" height="99.615" transform="rotate(33 78.8817 176.182)" fill="white"/>
<rect x="137.433" y="177" width="13.9236" height="100.433" transform="rotate(33.5 137.433 177)" fill="white"/>
<path d="M138.62 177H196.445L193.12 182L189.62 186.5L188.12 189H138.62V177Z" fill="white"/>
<path d="M173.62 188.5L191.436 184.059L169.12 218L157.12 212.5L173.62 188.5Z" fill="white"/>
<path d="M175.517 207.583C179.851 210.128 183.535 213.617 186.286 217.783C189.037 221.949 190.781 226.681 191.384 231.615C191.987 236.549 191.433 241.553 189.765 246.243C188.097 250.933 185.359 255.184 181.762 258.669C178.165 262.154 173.804 264.78 169.015 266.346C164.226 267.911 159.136 268.374 154.137 267.699C149.138 267.024 144.363 265.228 140.178 262.451C135.994 259.674 132.512 255.989 130 251.679L137.62 241C139.166 243.652 144.696 250.376 147.271 252.085C149.846 253.794 152.785 254.899 155.862 255.314C158.938 255.73 162.07 255.445 165.017 254.482C167.964 253.518 170.648 251.902 172.861 249.758C175.075 247.613 176.76 244.997 177.786 242.111C178.813 239.225 179.153 236.146 178.782 233.109C178.411 230.073 177.338 227.161 175.645 224.597C173.953 222.034 171.788 219.566 169.12 218L175.517 207.583Z" fill="white"/>
<defs>
<filter id="filter0_d_1_61" x="0" y="-6.10352e-05" width="300" height="300" filterUnits="userSpaceOnUse" color-interpolation-filters="sRGB">
<feFlood flood-opacity="0" result="BackgroundImageFix"/>
<feColorMatrix in="SourceAlpha" type="matrix" values="0 0 0 0 0 0 0 0 0 0 0 0 0 0 0 0 0 0 127 0" result="hardAlpha"/>
<feOffset dy="4"/>
<feGaussianBlur stdDeviation="2"/>
<feComposite in2="hardAlpha" operator="out"/>
<feColorMatrix type="matrix" values="0 0 0 0 0 0 0 0 0 0 0 0 0 0 0 0 0 0 0.25 0"/>
<feBlend mode="normal" in2="BackgroundImageFix" result="effect1_dropShadow_1_61"/>
<feBlend mode="normal" in="SourceGraphic" in2="effect1_dropShadow_1_61" result="shape"/>
</filter>
</defs>
</svg>
