<svg width="300" height="300" viewBox="0 0 300 300" fill="none" xmlns="http://www.w3.org/2000/svg">
<g clip-path="url(#clip0_0_3)">
<g filter="url(#filter0_d_0_3)">
<path d="M151 292C179.876 292 208.104 283.437 232.113 267.395C256.123 251.352 274.836 228.55 285.886 201.872C296.937 175.194 299.828 145.838 294.195 117.517C288.561 89.1957 274.656 63.181 254.238 42.7625C233.819 22.3441 207.804 8.43886 179.483 2.80541C151.162 -2.82803 121.806 0.0632544 95.1282 11.1137C68.4502 22.1641 45.6481 40.8773 29.6054 64.8868C13.5628 88.8964 5 117.124 5 146H151V292Z" fill="black"/>
<path d="M151 145H5V292H151V145Z" fill="black"/>
</g>
<path d="M192.808 263.718C214.433 255.372 233.284 241.088 247.208 222.496C261.131 203.905 269.566 181.756 271.547 158.58C273.529 135.404 268.978 112.136 258.415 91.4339C247.852 70.7315 231.702 53.4299 211.81 41.5055C191.918 29.5812 169.087 23.515 145.925 24C122.763 24.485 100.203 31.5016 80.8242 44.2483C61.445 56.995 46.0275 74.9577 36.3329 96.0842C26.6384 117.211 22.0576 140.9 25 163.973H32H37C36 144.473 39.3962 120.179 48.1553 101.091C56.9145 82.0025 69.8445 65.773 87.3539 54.2561C104.863 42.7393 125.246 36.3997 146.173 35.9615C167.101 35.5232 187.729 41.0041 205.702 51.778C223.674 62.5518 238.266 78.1841 247.81 96.889C257.354 115.594 261.466 136.617 259.675 157.557C257.885 178.497 249.5 198.473 237.684 215.306C224 230.473 217 236.973 198 247.473L192.808 263.718Z" fill="white"/>
<path d="M39 176H24V269H39V176Z" fill="white"/>
<path d="M94 176H79V268H94V176Z" fill="white"/>
<path d="M93.9999 186L78.8817 176.182L24.6275 259.726L39.7457 269.544L93.9999 186Z" fill="white"/>
<path d="M149.044 184.685L137.433 177L82.0003 260.75L93.611 268.435L149.044 184.685Z" fill="white"/>
<path d="M138 177H196L192.665 182L189.154 186.5L187.65 189H138V177Z" fill="white"/>
<path d="M173.62 188.5L191.436 184.059L169.12 218L157.12 212.5L173.62 188.5Z" fill="white"/>
<path d="M175.517 207.583C179.851 210.128 183.535 213.617 186.286 217.783C189.037 221.949 190.781 226.681 191.384 231.615C191.987 236.549 191.433 241.553 189.765 246.243C188.097 250.933 185.359 255.184 181.762 258.669C178.165 262.154 173.804 264.78 169.015 266.346C164.226 267.911 159.136 268.374 154.137 267.699C149.138 267.024 144.363 265.228 140.178 262.451C135.994 259.674 132.512 255.989 130 251.679L137.62 241C139.166 243.652 144.696 250.376 147.271 252.085C149.846 253.794 152.785 254.899 155.862 255.314C158.938 255.73 162.07 255.445 165.017 254.482C167.964 253.518 170.648 251.902 172.861 249.758C175.075 247.613 176.76 244.997 177.786 242.111C178.813 239.225 179.153 236.146 178.782 233.109C178.411 230.073 177.338 227.161 175.645 224.597C173.953 222.034 171.788 219.566 169.12 218L175.517 207.583Z" fill="white"/>
<circle cx="112" cy="91" r="18" fill="white"/>
<circle cx="179" cy="91" r="18" fill="white"/>
</g>
<defs>
<filter id="filter0_d_0_3" x="1" y="0" width="300" height="300" filterUnits="userSpaceOnUse" color-interpolation-filters="sRGB">
<feFlood flood-opacity="0" result="BackgroundImageFix"/>
<feColorMatrix in="SourceAlpha" type="matrix" values="0 0 0 0 0 0 0 0 0 0 0 0 0 0 0 0 0 0 127 0" result="hardAlpha"/>
<feOffset dy="4"/>
<feGaussianBlur stdDeviation="2"/>
<feComposite in2="hardAlpha" operator="out"/>
<feColorMatrix type="matrix" values="0 0 0 0 0 0 0 0 0 0 0 0 0 0 0 0 0 0 0.25 0"/>
<feBlend mode="normal" in2="BackgroundImageFix" result="effect1_dropShadow_0_3"/>
<feBlend mode="normal" in="SourceGraphic" in2="effect1_dropShadow_0_3" result="shape"/>
</filter>
<clipPath id="clip0_0_3">
<rect width="300" height="300" fill="white"/>
</clipPath>
</defs>
</svg>
