<svg width="73" height="34" viewBox="0 0 73 34" fill="none" xmlns="http://www.w3.org/2000/svg">
<g filter="url(#filter0_d_21_29)">
<path d="M4.35645 9.5525V0.100342H6.16515L7.73035 3.89599L9.29555 0.100342H11.1042V9.5525H9.68685V2.2873L7.71725 6.96991L5.74775 2.2873V9.5525H4.35645Z" fill="#151522"/>
<path d="M13.2521 9.5525L16.2217 0.100342H18.1391L21.1087 9.5525H19.4608L18.7739 7.2699H15.5217L14.8478 9.5525H13.2565H13.2521ZM15.8826 6.01339H18.4217L17.1521 1.81339L15.8826 6.01339Z" fill="#151522"/>
<path d="M23.4304 9.5525V0.100342H25.0652L28.4826 6.71339L28.4565 0.100342H29.8347V9.5525H28.3347L24.7826 2.72208L24.8087 9.5525H23.4304Z" fill="#151522"/>
<path d="M35.2695 9.5525V1.4786H32.3391V0.100342H39.8173V1.4786H36.8869V9.5525H35.2652H35.2695Z" fill="#151522"/>
<path d="M41.6042 9.5525L44.5738 0.100342H46.4912L49.4607 9.5525H47.813L47.1259 7.2699H43.8738L43.1999 9.5525H41.6087H41.6042ZM44.2346 6.01339H46.7738L45.5042 1.81339L44.2346 6.01339Z" fill="#151522"/>
<path d="M4.5304 25.7525V16.3003H6.1652L9.5826 22.9133L9.5565 16.3003H10.9347V25.7525H9.4347L5.8826 18.922L5.9087 25.7525H4.5304Z" fill="#151522"/>
<path d="M14.3043 25.7525V16.3003H20.4869V17.6786H15.9217V20.3133H18.8783V21.6612H15.9217V24.3742H20.5392V25.7525H14.3H14.3043Z" fill="#151522"/>
<path d="M25.8218 25.7525V17.6786H22.8914V16.3003H30.3696V17.6786H27.4392V25.7525H25.8174H25.8218Z" fill="#151522"/>
<path d="M33.3694 25.7525L32.2607 16.3003H33.6912L34.2868 22.5394L35.4999 16.3003H36.7129L37.9259 22.4829L38.5216 16.3003H39.8999L38.8042 25.7525H37.3477L36.0912 19.0829L34.8216 25.7525H33.3651H33.3694Z" fill="#151522"/>
<path d="M45.5304 25.9003C44.8652 25.9003 44.2521 25.709 43.6956 25.335C43.1391 24.9568 42.6912 24.4046 42.3608 23.6829C42.026 22.9568 41.8608 22.0742 41.8608 21.0307C41.8608 19.9872 42.026 19.1003 42.3608 18.3785C42.6956 17.6524 43.1391 17.1046 43.6956 16.7263C44.2521 16.3481 44.8652 16.1611 45.5304 16.1611C46.1956 16.1611 46.8043 16.3524 47.3608 16.7263C47.913 17.1046 48.3608 17.6568 48.6956 18.3785C49.0347 19.1046 49.1999 19.9872 49.1999 21.0307C49.1999 22.0742 49.0304 22.9611 48.6956 23.6829C48.3565 24.409 47.913 24.9568 47.3608 25.335C46.8086 25.7133 46.1956 25.9003 45.5304 25.9003ZM45.5304 24.4437C45.9086 24.4437 46.2521 24.3177 46.5652 24.0568C46.8739 23.8003 47.1217 23.4177 47.2999 22.909C47.4782 22.4003 47.5695 21.7742 47.5695 21.0264C47.5695 20.2785 47.4782 19.6524 47.2999 19.1481C47.1217 18.6437 46.8739 18.2611 46.5652 18.0003C46.2565 17.7394 45.9086 17.609 45.5304 17.609C45.1521 17.609 44.8086 17.7394 44.4956 18.0003C44.1869 18.2611 43.9391 18.6437 43.7608 19.1481C43.5826 19.6524 43.4912 20.2785 43.4912 21.0264C43.4912 21.7742 43.5826 22.4003 43.7608 22.909C43.9391 23.4177 44.1869 23.8003 44.4956 24.0568C44.8043 24.3133 45.1521 24.4437 45.5304 24.4437Z" fill="#151522"/>
<path d="M52.0391 25.7525V16.3003H55.2521C55.8826 16.3003 56.4347 16.4177 56.9043 16.6568C57.3782 16.8959 57.7434 17.2264 58.013 17.6568C58.2782 18.0829 58.413 18.5829 58.413 19.1481C58.413 19.7699 58.2521 20.3046 57.926 20.7525C57.5999 21.2046 57.1608 21.5307 56.6043 21.7394L58.6695 25.7481H56.926L55.0478 21.9699H53.6565V25.7481H52.0347L52.0391 25.7525ZM53.6608 20.6786H55.1173C55.6217 20.6786 56.0217 20.5394 56.326 20.2655C56.626 19.9916 56.7782 19.6307 56.7782 19.1786C56.7782 18.7264 56.626 18.3525 56.326 18.0786C56.026 17.8046 55.6217 17.6655 55.1173 17.6655H53.6608V20.6742V20.6786Z" fill="#151522"/>
<path d="M61.3391 25.7525V16.3003H62.961V20.5264L66.348 16.3003H68.196L64.387 20.8786L68.37 25.7525H66.33L62.956 21.4307V25.7525H61.3347H61.3391Z" fill="#151522"/>
</g>
<defs>
<filter id="filter0_d_21_29" x="0.356445" y="0.100342" width="72.0135" height="33.8" filterUnits="userSpaceOnUse" color-interpolation-filters="sRGB">
<feFlood flood-opacity="0" result="BackgroundImageFix"/>
<feColorMatrix in="SourceAlpha" type="matrix" values="0 0 0 0 0 0 0 0 0 0 0 0 0 0 0 0 0 0 127 0" result="hardAlpha"/>
<feOffset dy="4"/>
<feGaussianBlur stdDeviation="2"/>
<feComposite in2="hardAlpha" operator="out"/>
<feColorMatrix type="matrix" values="0 0 0 0 0 0 0 0 0 0 0 0 0 0 0 0 0 0 0.25 0"/>
<feBlend mode="normal" in2="BackgroundImageFix" result="effect1_dropShadow_21_29"/>
<feBlend mode="normal" in="SourceGraphic" in2="effect1_dropShadow_21_29" result="shape"/>
</filter>
</defs>
</svg>
