<svg width="324" height="62" viewBox="0 0 324 62" fill="none" xmlns="http://www.w3.org/2000/svg">
<path d="M185.156 7.24539C185.231 8.91267 184.704 10.58 184.402 12.1715C183.046 18.4617 182.669 24.9792 181.011 31.1936C183.498 28.9959 186.286 26.7223 189.753 26.4192C194.048 25.8129 198.494 28.6169 199.926 32.6336C200.83 35.9681 200.453 39.4543 199.775 42.7889C201.508 42.9404 203.166 42.8646 204.9 42.6373C204.447 38.6206 205.502 34.4524 208.14 31.3452C211.456 27.2528 217.258 25.5855 222.307 26.7981C226.678 28.0864 229.165 33.8461 226.452 37.6354C223.513 41.8794 218.539 44.0014 213.943 45.9718C215.148 47.336 216.882 48.3212 218.766 48.1696C224.041 47.8665 228.713 44.9866 232.933 42.1068C232.707 37.1807 233.988 31.6484 238.208 28.6169C242.503 25.5097 248.607 26.116 252.828 28.9959C255.088 27.3286 258.781 27.4802 259.987 30.36C260.288 35.3619 258.932 40.4395 260.363 45.3656C260.74 46.6539 262.097 48.1696 263.528 47.336C266.769 45.5929 268.804 42.4857 270.838 39.5301C272.044 36.3471 271.667 32.7851 272.647 29.5264C273.325 28.0106 275.36 27.2528 276.792 28.3138C278.374 29.0717 278.525 30.8905 278.826 32.4062C280.936 29.6022 283.649 26.5707 287.492 26.6465C290.808 26.1918 293.898 28.1622 295.179 31.1179C297.214 28.3138 300.454 26.1918 304.071 26.7223C308.141 26.5707 311.682 30.0569 311.682 33.9977C312.059 38.3933 308.065 41.5763 307.915 45.8203C307.839 47.9423 310.401 48.1696 311.909 47.6391C316.204 46.1234 318.389 41.9552 321.253 38.7722C322.836 39.6816 324.795 41.5005 323.664 43.4709C321.253 46.9571 318.389 50.4432 314.697 52.7168C311.909 54.4598 308.141 54.9903 305.051 53.6262C302.037 52.4136 300.454 49.0033 300.605 45.8961C300.831 42.4099 303.092 39.6059 303.996 36.2713C304.448 35.0587 303.845 33.3914 302.489 33.1641C300.153 32.9367 297.967 34.4524 296.611 36.2713C294.576 39.0754 293.596 42.4099 292.617 45.6687C291.939 48.0938 292.165 50.8221 291.11 53.1715C289.602 55.8998 285.081 53.702 285.081 51.0495C284.78 47.9423 285.684 45.0624 286.814 42.2584L287.568 40.2879C288.171 38.7722 288.698 37.1807 289.075 35.5892C289.301 34.3009 288.095 33.0883 286.814 33.1641C283.875 33.3914 281.69 35.7408 280.409 38.2417C278.374 42.2584 277.093 46.6539 276.716 51.1253C276.565 52.7926 275.435 54.9903 273.325 54.3841C270.687 53.9293 269.632 51.1253 270.085 48.7759C269.859 49.0033 269.632 49.1548 269.406 49.3822L268.728 49.9885C266.392 52.1863 263.905 54.4598 260.514 54.3841C256.219 53.8536 253.883 49.458 253.355 45.6687C251.396 49.2306 249.135 53.2473 244.84 54.2325C240.243 54.9903 235.797 51.9589 233.762 48.0181C229.09 51.7316 223.287 54.5356 217.183 54.3841C212.888 54.2325 209.346 51.3526 206.934 48.1696C203.694 49.1549 200.152 49.6096 197.062 47.8665C194.123 54.0051 186.06 56.6576 179.881 53.9293C177.168 52.7926 175.51 50.2916 174.304 47.7149C170.536 51.0495 166.015 53.702 160.966 54.4598C158.177 54.9146 155.766 52.5652 155.238 49.9885C153.957 45.0624 156.821 40.3637 157.348 35.5892C157.65 34.2251 156.293 32.9367 154.937 33.3156C151.621 33.543 149.436 36.4986 148.004 39.1511C146.346 42.4857 144.99 46.0476 144.387 49.6853C144.085 51.2011 143.935 52.8683 142.804 54.0809C140.619 55.4451 137.68 53.5504 137.454 51.2011C137.303 48.7759 137.831 46.3508 138.283 43.9256C136.097 46.6539 132.254 47.1844 129.315 45.2898C127.356 51.58 120.347 55.4451 113.867 54.2325C109.496 53.3988 105.577 49.9127 104.748 45.5171C103.769 40.7426 104.447 35.4377 107.31 31.3452C112.058 25.055 122.985 25.2824 127.808 31.421C129.692 33.8461 129.918 36.9534 129.767 39.909C131.124 40.5153 132.706 40.8942 133.912 39.8332C137.228 37.3323 139.639 33.6188 140.77 29.6779C141.372 28.0864 143.558 27.4044 144.914 28.4654C146.346 29.299 146.648 30.9663 146.648 32.4062C149.662 28.6927 154.56 26.1918 159.458 26.7981C162.096 27.1012 163.905 29.4506 164.206 31.9515C164.809 35.4376 163.829 38.6964 162.774 41.9552L162.397 43.2436C162.021 44.3046 161.719 45.4414 161.493 46.5024C161.267 48.2454 163.452 47.7907 164.357 47.1844C167.597 45.6687 170.536 43.5467 173.174 41.0458C173.852 29.7537 175.962 18.6132 177.394 7.39695C178.223 3.4561 184.628 3.60767 185.156 7.24539ZM25.7726 1.3341C29.4652 11.641 31.4998 22.4783 33.1577 33.2399C34.2127 32.0273 34.4388 30.36 35.0417 28.8443C37.4531 22.3267 39.7139 15.7334 42.4268 9.2916C43.4818 6.79067 44.5368 4.21396 46.1947 1.94039C46.7976 0.955177 48.0033 0.500458 49.1337 0.727815C50.9423 1.8646 51.3191 4.13817 51.5452 6.03281C52.6002 17.628 53.2031 29.299 54.1827 40.8942C54.4088 44.3803 55.916 47.7907 55.7652 51.2768C55.1624 54.6114 49.0583 54.9903 48.6815 51.2768C47.4758 39.8332 46.5715 28.238 46.1194 16.7186C42.8036 25.1308 40.5428 33.9977 37.1517 42.4099C35.8706 44.6835 34.2127 48.0181 31.123 47.6391C29.2391 47.5634 29.1637 45.4413 28.8623 44.0772C26.9783 35.8924 25.2451 27.7075 23.7379 19.4469C21.3264 28.4654 18.6889 37.4839 14.1674 45.7445C12.2081 49.0791 9.87196 52.7168 5.8026 53.7778C3.84328 54.4598 0.602867 54.6114 0 52.1105C0 49.5338 3.0897 49.0033 4.52151 47.336C7.15905 44.2288 8.81694 40.4395 10.3995 36.726C14.7703 25.5855 17.7092 13.9145 20.4975 2.31932C20.7236 -0.105822 24.7176 -0.939467 25.7726 1.3341ZM115.298 33.4672C110.551 36.1197 110.777 43.3193 114.545 46.7297C116.655 48.4728 119.971 47.4876 121.553 45.4413C124.04 42.3341 123.663 37.787 121.553 34.604C120.121 32.6336 117.258 32.3304 115.298 33.4672ZM186.211 33.1641C181.538 35.1345 179.202 41.4247 181.991 45.7445C183.422 48.0181 186.663 47.8665 188.848 46.9571C193.596 44.8351 195.329 38.2417 192.39 33.9977C191.034 31.9515 188.17 32.2546 186.211 33.1641ZM243.785 33.3156C238.509 35.2861 238.133 42.8646 241.825 46.5024C242.956 47.5634 244.99 47.9423 246.196 46.7297C249.06 44.0772 250.718 40.2879 251.396 36.4986C250.491 33.6188 246.497 32.482 243.785 33.3156ZM215.073 32.8609C212.812 35.2103 212.586 38.6206 212.059 41.6521C214.922 39.909 217.56 37.787 220.047 35.5892C220.951 34.8314 221.705 33.543 221.102 32.3304C219.519 30.5116 216.58 31.421 215.073 32.8609ZM89.3751 27.0254C94.3488 29.1474 97.6645 34.3767 97.2877 39.6816C88.3954 39.6816 79.5031 39.7574 70.6109 39.6059C70.6109 36.0439 71.8166 32.4062 74.3788 29.9053C78.1467 26.0402 84.4014 24.8277 89.3751 27.0254Z" fill="#5FC0C1"/>
<path d="M89.037 60C89.5556 60 90 60.4445 90 61C90 61.5556 89.5556 62 89.037 62H74.963C74.4444 62 74 61.5556 74 61C74 60.4445 74.4444 60 74.963 60H89.037Z" fill="#E1177C"/>
<path d="M72 62C72.5523 62 73 61.5523 73 61C73 60.4477 72.5523 60 72 60C71.4477 60 71 60.4477 71 61C71 61.5523 71.4477 62 72 62Z" fill="#E1177C"/>
<path d="M80.5 58C80.7761 58 81 57.7761 81 57.5C81 57.2239 80.7761 57 80.5 57C80.2239 57 80 57.2239 80 57.5C80 57.7761 80.2239 58 80.5 58Z" fill="#E1177C"/>
<path d="M97.0189 57C97.5472 57 98 57.2308 98 57.5C98 57.7692 97.5472 58 97.0189 58H82.9811C82.4528 58 82 57.7692 82 57.5C82 57.2308 82.4528 57 82.9811 57H97.0189Z" fill="#E1177C"/>
<path d="M61 55C61.5523 55 62 54.5523 62 54C62 53.4477 61.5523 53 61 53C60.4477 53 60 53.4477 60 54C60 54.5523 60.4477 55 61 55Z" fill="#E1177C"/>
<path d="M75.9832 53C76.5307 53 77 53.4615 77 54C77 54.5385 76.5307 55 75.9832 55H64.0168C63.4693 55 63 54.5385 63 54C63 53.4615 63.4693 53 64.0168 53H75.9832Z" fill="#E1177C"/>
<path d="M102.015 53C102.545 53 103 53.4615 103 54C103 54.5385 102.545 55 102.015 55H78.9849C78.4545 55 78 54.5385 78 54C78 53.4615 78.4545 53 78.9849 53H102.015Z" fill="#E1177C"/>
<path d="M97.99 49C98.5338 49 99 49.6923 99 50.5C99 51.3077 98.5338 52 97.99 52H69.01C68.4662 52 68 51.3077 68 50.5C68 49.6923 68.4662 49 69.01 49H97.99Z" fill="#E1177C"/>
<path d="M66 52C66.5523 52 67 51.3284 67 50.5C67 49.6716 66.5523 49 66 49C65.4477 49 65 49.6716 65 50.5C65 51.3284 65.4477 52 66 52Z" fill="#E1177C"/>
<path d="M91.0226 46C91.5489 46 92 46.4615 92 47C92 47.5385 91.5489 48 91.0226 48H62.9774C62.4511 48 62 47.5385 62 47C62 46.4615 62.4511 46 62.9774 46H91.0226Z" fill="#E1177C"/>
<path d="M59.5 48C60.3284 48 61 47.5523 61 47C61 46.4477 60.3284 46 59.5 46C58.6716 46 58 46.4477 58 47C58 47.5523 58.6716 48 59.5 48Z" fill="#E1177C"/>
<path d="M66 44C66.5523 44 67 43.5523 67 43C67 42.4477 66.5523 42 66 42C65.4477 42 65 42.4477 65 43C65 43.5523 65.4477 44 66 44Z" fill="#E1177C"/>
<path d="M100.007 42C100.542 42 101 42.4615 101 43C101 43.5385 100.542 44 100.007 44H68.9931C68.4583 44 68 43.5385 68 43C68 42.4615 68.4583 42 68.9931 42H100.007Z" fill="#E1177C"/>
</svg>
