<svg width="219" height="219" viewBox="0 0 219 219" fill="none" xmlns="http://www.w3.org/2000/svg">
<g clip-path="url(#clip0_6_27)">
<path d="M109.5 219C169.975 219 219 169.975 219 109.5C219 49.0248 169.975 0 109.5 0C49.0248 0 0 49.0248 0 109.5C0 169.975 49.0248 219 109.5 219Z" fill="#4AB8A1"/>
<path d="M32.5078 130.031V54.9057C32.5078 52.767 33.8851 51.3281 35.9297 51.3281H176.227C178.273 51.3281 179.648 52.7653 179.648 54.9057V130.031H32.5078Z" fill="#1E2C33"/>
<path d="M32.5078 130.031V143.719C32.5078 145.763 33.8851 147.141 35.9297 147.141H176.227C178.273 147.141 179.648 145.763 179.648 143.719V130.031H32.5078Z" fill="#F5F5F5"/>
<path d="M172.805 59.8828H39.3516V123.188H172.805V59.8828Z" fill="#586874"/>
<path d="M124.898 147.141H87.2578V162.539H124.898V147.141Z" fill="#E6E6E6"/>
<path d="M136.875 165.961C136.875 164.079 135.335 162.539 133.453 162.539H78.7031C76.8211 162.539 75.2812 164.079 75.2812 165.961C75.2812 167.843 76.8211 169.383 78.7031 169.383H133.453C135.335 169.383 136.875 167.843 136.875 165.961Z" fill="#F5F5F5"/>
<path d="M106.078 142.008C107.968 142.008 109.5 140.476 109.5 138.586C109.5 136.696 107.968 135.164 106.078 135.164C104.188 135.164 102.656 136.696 102.656 138.586C102.656 140.476 104.188 142.008 106.078 142.008Z" fill="#1E2C33"/>
<path d="M186.492 165.961C186.492 167.672 184.781 169.383 183.07 169.383H148.852C147.141 169.383 145.43 168.356 145.43 166.132V106.078C145.43 104.367 147.141 102.656 148.852 102.656H183.07C184.781 102.656 186.492 104.367 186.492 106.078V165.961Z" fill="#E6E6E6"/>
<path d="M184.781 109.5H147.141V159.117H184.781V109.5Z" fill="#1E2C33"/>
<path d="M183.07 111.211H148.852V157.406H183.07V111.211Z" fill="#586874"/>
<path d="M165.961 105.223C166.433 105.223 166.816 104.84 166.816 104.367C166.816 103.895 166.433 103.512 165.961 103.512C165.488 103.512 165.105 103.895 165.105 104.367C165.105 104.84 165.488 105.223 165.961 105.223Z" fill="#263740"/>
<path d="M170.375 107.789H161.589C161.169 107.789 160.828 107.358 160.828 106.934C160.828 106.513 161.169 106.078 161.589 106.078H170.375C170.798 106.078 171.137 106.513 171.137 106.934C171.137 107.358 170.798 107.789 170.375 107.789Z" fill="#263740"/>
<path d="M165.959 160.828C164.072 160.828 162.541 162.361 162.541 164.25C162.541 166.135 164.074 167.672 165.959 167.672C167.848 167.672 169.385 166.135 169.385 164.25C169.385 162.361 167.85 160.828 165.959 160.828Z" fill="#263740"/>
<path d="M145.43 114.633C144.484 114.633 143.719 113.868 143.719 112.922V109.5C143.719 108.554 144.484 107.789 145.43 107.789C146.376 107.789 147.141 108.554 147.141 109.5V112.922C147.141 113.868 146.376 114.633 145.43 114.633Z" fill="#E6E6E6"/>
<path d="M145.43 123.188C144.484 123.188 143.719 122.423 143.719 121.477V119.766C143.719 118.819 144.484 118.055 145.43 118.055C146.376 118.055 147.141 118.819 147.141 119.766V121.477C147.141 122.423 146.376 123.188 145.43 123.188Z" fill="#E6E6E6"/>
<path d="M145.43 130.031C144.484 130.031 143.719 129.266 143.719 128.32V126.609C143.719 125.663 144.484 124.898 145.43 124.898C146.376 124.898 147.141 125.663 147.141 126.609V128.32C147.141 129.266 146.376 130.031 145.43 130.031Z" fill="#E6E6E6"/>
<path d="M179.648 104.367H177.938C176.991 104.367 176.227 103.602 176.227 102.656C176.227 101.71 176.991 100.945 177.938 100.945H179.648C180.595 100.945 181.359 101.71 181.359 102.656C181.359 103.602 180.595 104.367 179.648 104.367Z" fill="#E6E6E6"/>
</g>
<defs>
<clipPath id="clip0_6_27">
<rect width="219" height="219" fill="white"/>
</clipPath>
</defs>
</svg>
