<svg width="1098" height="240" viewBox="0 0 1098 240" fill="none" xmlns="http://www.w3.org/2000/svg">
<path d="M341.795 224.21V73.1715H364.267L366.407 85.3631H367.477C373.898 77.0124 384.809 71.0312 400.001 71.0312C427.805 71.0312 450.067 93.7138 450.067 127.288C450.067 160.863 427.824 183.546 400.001 183.546C385.019 183.546 374.548 177.335 368.987 170.284H367.917V224.191H341.814L341.795 224.21ZM423.945 127.308C423.945 107.625 411.314 95.2234 395.912 95.2234C380.51 95.2234 367.879 107.625 367.879 127.308C367.879 146.99 380.51 159.392 395.912 159.392C411.314 159.392 423.945 146.99 423.945 127.308Z" fill="#22143D"/>
<path d="M463.309 127.288C463.309 94.5546 486.833 71.0312 518.286 71.0312C549.74 71.0312 573.263 94.5546 573.263 127.288C573.263 160.022 549.74 183.546 518.286 183.546C486.833 183.546 463.309 159.793 463.309 127.288ZM546.95 127.288C546.95 108.026 534.109 95.2043 518.286 95.2043C502.464 95.2043 489.412 108.046 489.412 127.288C489.412 146.531 502.464 159.162 518.286 159.162C534.109 159.162 546.95 146.55 546.95 127.288Z" fill="#22143D"/>
<path d="M592.181 181.425V31.6665H618.284V181.425H592.181Z" fill="#22143D"/>
<path d="M715.186 73.1714H742.99L695.924 204.738C691.224 217.789 684.803 224.21 667.891 224.21H642.648V200.037H664.05C667.91 200.037 670.032 198.107 671.331 194.896L673.892 187.845L629.826 73.1714H657.63L685.663 148.27H689.943L715.186 73.1714Z" fill="#22143D"/>
<path d="M747.978 186.775H774.501C775.571 193.826 782.622 203.457 799.324 203.457C814.936 203.457 825.217 193.616 825.217 178.635V163.443H824.147C818.376 169.653 807.674 175.214 793.973 175.214C766.17 175.214 744.767 153.812 744.767 123.008C744.767 92.2041 766.17 71.0312 793.973 71.0312C808.305 71.0312 818.796 76.8022 825.427 84.9427H826.497L828.637 73.1715H851.32V178.635C851.32 207.298 832.058 226.35 799.324 226.35C762.749 226.35 748.627 202.387 747.978 186.775ZM825.217 123.027C825.217 106.135 813.235 94.3635 798.044 94.3635C782.852 94.3635 771.081 106.135 771.081 123.027C771.081 139.92 783.062 151.901 798.044 151.901C813.025 151.901 825.217 140.13 825.217 123.027Z" fill="#22143D"/>
<path d="M869.454 127.288C869.454 94.5546 892.977 71.0312 924.431 71.0312C955.885 71.0312 979.408 94.5546 979.408 127.288C979.408 160.022 955.885 183.546 924.431 183.546C892.977 183.546 869.454 159.793 869.454 127.288ZM953.095 127.288C953.095 108.026 940.253 95.2043 924.431 95.2043C908.609 95.2043 895.557 108.046 895.557 127.288C895.557 146.531 908.609 159.162 924.431 159.162C940.253 159.162 953.095 146.55 953.095 127.288Z" fill="#22143D"/>
<path d="M997.581 181.425V73.1715H1020.03L1022.17 83.4331H1023.24C1027.52 78.522 1038.23 71.0312 1054.47 71.0312C1079.29 71.0312 1097.25 88.9938 1097.25 116.377V181.405H1071.15V119.798C1071.15 105.886 1061.31 95.8349 1047.84 95.8349C1034.37 95.8349 1023.66 106.326 1023.66 119.798V181.405H997.562L997.581 181.425Z" fill="#22143D"/>
<path d="M201.343 168.774L265.511 131.722C268.912 129.753 271.014 126.104 271.014 122.186V48.0812C271.014 44.1638 268.912 40.514 265.511 38.5457L201.343 1.49319C197.941 -0.475047 193.718 -0.455937 190.336 1.49319L126.167 38.5457C122.766 40.514 120.664 44.1638 120.664 48.0812V180.507L75.6621 206.476L30.6602 180.507V128.55L75.6621 102.58L105.339 119.721V84.8662L81.1655 70.8974C79.5031 69.942 77.5921 69.426 75.6621 69.426C73.7321 69.426 71.8212 69.942 70.1587 70.8974L5.99036 107.95C2.58894 109.918 0.486938 113.568 0.486938 117.485V191.59C0.486938 195.508 2.58894 199.158 5.99036 201.126L70.1587 238.178C73.5601 240.128 77.7641 240.128 81.1655 238.178L145.334 201.126C148.735 199.158 150.837 195.508 150.837 191.59V59.1644L151.64 58.7058L195.82 33.1952L240.822 59.1644V111.122L195.82 137.091L166.182 119.989V154.844L190.317 168.774C193.718 170.723 197.941 170.723 201.324 168.774H201.343Z" fill="#22143D"/>
</svg>
