<?xml version="1.0" encoding="utf-8"?>
<!-- Generator: Adobe Illustrator 24.1.1, SVG Export Plug-In . SVG Version: 6.00 Build 0)  -->
<svg version="1.1" id="Layer_1" xmlns="http://www.w3.org/2000/svg" xmlns:xlink="http://www.w3.org/1999/xlink" x="0px" y="0px"
	 viewBox="0 0 1000 500" style="enable-background:new 0 0 1000 500;" xml:space="preserve">
<style type="text/css">
	.st0{fill:#B5C0F1;}
	.st1{fill:#221363;}
	.st2{fill:#03A5ED;}
	.st3{fill:none;stroke:#03A5ED;stroke-width:3.6213;stroke-miterlimit:10;}
</style>
<g>
	<g>
		<g>
			<polygon class="st0" points="500,168.56 500,224.89 546.76,249.55 			"/>
			<polygon class="st1" points="500,224.89 453.24,249.55 546.76,249.55 			"/>
			<polygon class="st2" points="500,168.56 453.24,249.55 500.08,224.89 			"/>
		</g>
		<g>
			<polygon class="st3" points="500,109.31 401.53,279.87 598.47,279.87 			"/>
			<circle class="st2" cx="500" cy="109.96" r="6.93"/>
			<g>
				<circle class="st2" cx="596.86" cy="278.68" r="6.93"/>
				<circle class="st2" cx="403.14" cy="278.78" r="6.93"/>
			</g>
		</g>
	</g>
	<g>
		<path class="st1" d="M44.7,373.98H31.79v22.24H24.5v-54.97h18.2c6.19,0,10.95,1.41,14.29,4.23c3.33,2.82,5,6.92,5,12.31
			c0,3.42-0.92,6.41-2.77,8.95c-1.85,2.54-4.42,4.44-7.72,5.7l12.91,23.33v0.45h-7.78L44.7,373.98z M31.79,368.05h11.14
			c3.6,0,6.46-0.93,8.59-2.8c2.13-1.87,3.19-4.36,3.19-7.49c0-3.4-1.01-6.01-3.04-7.83c-2.03-1.82-4.95-2.74-8.78-2.76h-11.1V368.05
			z"/>
		<path class="st1" d="M119.07,370.5c0,5.39-0.91,10.09-2.72,14.1c-1.81,4.01-4.38,7.08-7.7,9.19s-7.2,3.17-11.63,3.17
			c-4.33,0-8.17-1.06-11.51-3.19c-3.35-2.13-5.95-5.16-7.8-9.1s-2.8-8.5-2.85-13.69v-3.96c0-5.29,0.92-9.95,2.76-14.01
			c1.84-4.05,4.44-7.15,7.8-9.31c3.36-2.15,7.2-3.23,11.53-3.23c4.4,0,8.29,1.06,11.65,3.19c3.36,2.13,5.95,5.21,7.76,9.25
			c1.81,4.04,2.72,8.74,2.72,14.1V370.5z M111.86,366.95c0-6.52-1.31-11.52-3.93-15.01c-2.62-3.49-6.28-5.23-10.99-5.23
			c-4.58,0-8.19,1.74-10.82,5.23c-2.63,3.49-3.98,8.32-4.06,14.52v4.04c0,6.32,1.33,11.28,3.98,14.89
			c2.66,3.61,6.31,5.42,10.97,5.42c4.68,0,8.31-1.71,10.87-5.12c2.57-3.41,3.89-8.3,3.96-14.67V366.95z"/>
		<path class="st1" d="M134.58,396.21v-54.97h17.97c5.97,0,10.45,1.23,13.46,3.7c3.01,2.47,4.51,6.12,4.51,10.95
			c0,2.57-0.73,4.84-2.19,6.81c-1.46,1.98-3.45,3.51-5.97,4.59c2.97,0.83,5.32,2.41,7.04,4.74c1.72,2.33,2.59,5.1,2.59,8.32
			c0,4.93-1.6,8.81-4.79,11.63c-3.2,2.82-7.71,4.23-13.55,4.23H134.58z M141.83,364.69h10.95c3.17,0,5.71-0.79,7.61-2.38
			c1.9-1.59,2.85-3.75,2.85-6.47c0-3.03-0.88-5.23-2.64-6.6c-1.76-1.38-4.44-2.06-8.04-2.06h-10.72V364.69z M141.83,370.5v19.78
			h11.97c3.37,0,6.03-0.87,7.98-2.62c1.95-1.75,2.93-4.16,2.93-7.23c0-6.62-3.6-9.93-10.8-9.93H141.83z"/>
		<path class="st1" d="M229.64,370.5c0,5.39-0.91,10.09-2.72,14.1c-1.81,4.01-4.38,7.08-7.7,9.19c-3.32,2.11-7.2,3.17-11.63,3.17
			c-4.33,0-8.17-1.06-11.51-3.19c-3.35-2.13-5.95-5.16-7.8-9.1c-1.85-3.94-2.8-8.5-2.85-13.69v-3.96c0-5.29,0.92-9.95,2.76-14.01
			c1.84-4.05,4.44-7.15,7.8-9.31c3.36-2.15,7.2-3.23,11.53-3.23c4.4,0,8.29,1.06,11.65,3.19c3.36,2.13,5.95,5.21,7.76,9.25
			c1.81,4.04,2.72,8.74,2.72,14.1V370.5z M222.43,366.95c0-6.52-1.31-11.52-3.93-15.01c-2.62-3.49-6.28-5.23-10.99-5.23
			c-4.58,0-8.19,1.74-10.82,5.23c-2.63,3.49-3.98,8.32-4.06,14.52v4.04c0,6.32,1.33,11.28,3.98,14.89
			c2.66,3.61,6.31,5.42,10.97,5.42c4.68,0,8.31-1.71,10.87-5.12c2.57-3.41,3.89-8.3,3.96-14.67V366.95z"/>
		<path class="st1" d="M287.39,396.21h-7.29l-27.67-42.36v42.36h-7.29v-54.97h7.29l27.75,42.55v-42.55h7.21V396.21z"/>
		<path class="st1" d="M347.19,370.5c0,5.39-0.91,10.09-2.72,14.1s-4.38,7.08-7.7,9.19c-3.32,2.11-7.2,3.17-11.63,3.17
			c-4.33,0-8.17-1.06-11.51-3.19c-3.35-2.13-5.95-5.16-7.8-9.1c-1.85-3.94-2.8-8.5-2.85-13.69v-3.96c0-5.29,0.92-9.95,2.76-14.01
			c1.84-4.05,4.44-7.15,7.8-9.31c3.36-2.15,7.2-3.23,11.53-3.23c4.4,0,8.29,1.06,11.65,3.19c3.36,2.13,5.95,5.21,7.76,9.25
			c1.81,4.04,2.72,8.74,2.72,14.1V370.5z M339.98,366.95c0-6.52-1.31-11.52-3.93-15.01c-2.62-3.49-6.28-5.23-10.99-5.23
			c-4.58,0-8.19,1.74-10.82,5.23c-2.63,3.49-3.98,8.32-4.06,14.52v4.04c0,6.32,1.33,11.28,3.98,14.89
			c2.66,3.61,6.31,5.42,10.97,5.42c4.68,0,8.31-1.71,10.87-5.12c2.57-3.41,3.89-8.3,3.96-14.67V366.95z"/>
		<path class="st1" d="M372.07,341.24l17.97,44.85l17.97-44.85h9.4v54.97h-7.25v-21.41l0.68-23.1l-18.05,44.51h-5.55l-18.01-44.4
			l0.72,22.99v21.41h-7.25v-54.97H372.07z"/>
		<path class="st1" d="M442.62,396.21h-7.25v-54.97h7.25V396.21z"/>
		<path class="st1" d="M500.95,378.77c-0.68,5.81-2.83,10.3-6.44,13.46c-3.61,3.16-8.41,4.74-14.4,4.74
			c-6.49,0-11.7-2.33-15.61-6.98c-3.91-4.66-5.87-10.89-5.87-18.69v-5.29c0-5.11,0.91-9.6,2.74-13.48c1.82-3.88,4.41-6.85,7.76-8.93
			c3.35-2.08,7.22-3.11,11.63-3.11c5.84,0,10.52,1.63,14.04,4.89c3.52,3.26,5.57,7.77,6.15,13.53h-7.29
			c-0.63-4.39-1.99-7.57-4.1-9.54c-2.1-1.97-5.04-2.95-8.82-2.95c-4.63,0-8.26,1.71-10.89,5.14c-2.63,3.43-3.94,8.3-3.94,14.62v5.33
			c0,5.97,1.25,10.72,3.74,14.24c2.49,3.53,5.98,5.29,10.46,5.29c4.03,0,7.12-0.91,9.27-2.74c2.15-1.83,3.58-5,4.29-9.53H500.95z"/>
		<path class="st1" d="M531.67,371.71c-6.22-1.79-10.74-3.98-13.57-6.59c-2.83-2.6-4.25-5.82-4.25-9.65c0-4.33,1.73-7.91,5.19-10.74
			c3.46-2.83,7.96-4.25,13.5-4.25c3.78,0,7.14,0.73,10.1,2.19c2.96,1.46,5.25,3.47,6.87,6.04s2.44,5.37,2.44,8.42h-7.29
			c0-3.33-1.06-5.95-3.17-7.86c-2.11-1.91-5.1-2.86-8.95-2.86c-3.57,0-6.36,0.79-8.36,2.36c-2,1.58-3,3.76-3,6.56
			c0,2.24,0.95,4.14,2.85,5.69c1.9,1.55,5.13,2.97,9.7,4.25c4.57,1.29,8.14,2.7,10.72,4.25c2.58,1.55,4.49,3.35,5.74,5.42
			c1.25,2.06,1.87,4.49,1.87,7.29c0,4.45-1.74,8.02-5.21,10.7s-8.12,4.02-13.93,4.02c-3.78,0-7.3-0.72-10.57-2.17
			c-3.27-1.45-5.8-3.43-7.57-5.95c-1.77-2.52-2.66-5.37-2.66-8.57h7.29c0,3.32,1.23,5.95,3.68,7.87c2.45,1.93,5.73,2.89,9.84,2.89
			c3.83,0,6.76-0.78,8.8-2.34c2.04-1.56,3.06-3.69,3.06-6.38c0-2.69-0.94-4.78-2.83-6.25S536.63,373.15,531.67,371.71z"/>
		<path class="st1" d="M565.04,392.55c0-1.21,0.36-2.21,1.08-3.02c0.72-0.81,1.79-1.21,3.23-1.21c1.43,0,2.52,0.4,3.27,1.21
			c0.74,0.81,1.11,1.81,1.11,3.02c0,1.16-0.37,2.13-1.11,2.91c-0.74,0.78-1.83,1.17-3.27,1.17c-1.43,0-2.51-0.39-3.23-1.17
			C565.4,394.68,565.04,393.71,565.04,392.55z"/>
		<path class="st1" d="M633.22,396.21h-7.29l-27.67-42.36v42.36h-7.29v-54.97h7.29l27.75,42.55v-42.55h7.21V396.21z"/>
		<path class="st1" d="M681.8,370.81h-23.82v19.48h27.67v5.93h-34.92v-54.97h34.54v5.93h-27.3v17.71h23.82V370.81z"/>
		<path class="st1" d="M737.3,347.17h-17.67v49.04h-7.21v-49.04h-17.63v-5.93h42.51V347.17z"/>
		<path class="st1" d="M761.94,378.88l1.06,7.25l1.55-6.53l10.87-38.36h6.12l10.61,38.36l1.51,6.64l1.17-7.4l8.53-37.6h7.29
			l-13.33,54.97h-6.61l-11.33-40.06l-0.87-4.19l-0.87,4.19l-11.74,40.06h-6.61l-13.29-54.97h7.25L761.94,378.88z"/>
		<path class="st1" d="M865.61,370.5c0,5.39-0.91,10.09-2.72,14.1c-1.81,4.01-4.38,7.08-7.7,9.19c-3.32,2.11-7.2,3.17-11.63,3.17
			c-4.33,0-8.17-1.06-11.52-3.19c-3.35-2.13-5.95-5.16-7.8-9.1c-1.85-3.94-2.8-8.5-2.85-13.69v-3.96c0-5.29,0.92-9.95,2.76-14.01
			c1.84-4.05,4.44-7.15,7.8-9.31c3.36-2.15,7.2-3.23,11.53-3.23c4.4,0,8.29,1.06,11.65,3.19c3.36,2.13,5.95,5.21,7.76,9.25
			c1.81,4.04,2.72,8.74,2.72,14.1V370.5z M858.4,366.95c0-6.52-1.31-11.52-3.93-15.01c-2.62-3.49-6.28-5.23-10.99-5.23
			c-4.58,0-8.19,1.74-10.82,5.23c-2.63,3.49-3.98,8.32-4.06,14.52v4.04c0,6.32,1.33,11.28,3.98,14.89
			c2.66,3.61,6.31,5.42,10.97,5.42c4.68,0,8.31-1.71,10.87-5.12c2.57-3.41,3.89-8.3,3.96-14.67V366.95z"/>
		<path class="st1" d="M901.28,373.98h-12.91v22.24h-7.29v-54.97h18.2c6.19,0,10.95,1.41,14.29,4.23c3.33,2.82,5,6.92,5,12.31
			c0,3.42-0.92,6.41-2.78,8.95c-1.85,2.54-4.42,4.44-7.72,5.7l12.91,23.33v0.45h-7.78L901.28,373.98z M888.37,368.05h11.14
			c3.6,0,6.46-0.93,8.59-2.8c2.13-1.87,3.19-4.36,3.19-7.49c0-3.4-1.01-6.01-3.04-7.83c-2.03-1.82-4.95-2.74-8.78-2.76h-11.1V368.05
			z"/>
		<path class="st1" d="M947.34,370.65l-6.72,6.98v18.57h-7.25v-54.97h7.25v27.18l24.43-27.18h8.76l-21.63,24.28l23.33,30.69h-8.68
			L947.34,370.65z"/>
	</g>
</g>
</svg>
