<svg width="238" height="180" viewBox="0 0 238 180" fill="none" xmlns="http://www.w3.org/2000/svg">
<path d="M140.3 49.2999L100.4 68.9L140.3 87.9V103.1L82.2 75.6V60.5L122.6 40.5999L82.2 21.5V6.19995L140.3 33.7999V49.2999Z" fill="black"/>
<path d="M82.2 6.2L97.6 0L155.7 27.6L140.3 33.8L82.2 6.2Z" fill="#2B2929"/>
<path d="M140.3 49.3L155.7 43.1V27.6L140.3 33.8V49.3Z" fill="#2B2929"/>
<path d="M140 87.6V57.1L155.4 50V96.6L140 102.8V87.6Z" fill="#292828"/>
<path d="M12 171.7H35.3V178.6H0L23.8 137H3.9V130.1H35.8L12 171.7Z" fill="black"/>
<path d="M51.2001 130.1V178.6H43.8V130.1H51.2001Z" fill="black"/>
<path d="M70.1 130.1V171.7H84.4001V178.6H62.8V130.1H70.1Z" fill="black"/>
<path d="M98.7 130.1V171.7H112.9V178.6H91.3V130.1H98.7Z" fill="black"/>
<path d="M127.2 130.1V178.6H119.9V130.1H127.2Z" fill="black"/>
<path d="M188.2 179.5H179L175.2 175.6C171.172 178.18 166.483 179.534 161.7 179.5C155.339 179.55 149.195 177.192 144.5 172.9C141.873 170.623 139.784 167.792 138.383 164.61C136.982 161.428 136.305 157.975 136.4 154.5C136.318 151.094 136.962 147.709 138.29 144.571C139.617 141.433 141.598 138.613 144.1 136.3C148.653 131.896 154.692 129.36 161.025 129.193C167.357 129.026 173.522 131.241 178.3 135.4C184.2 140.4 187.1 146.9 187.1 154.9C187.109 158.001 186.503 161.074 185.319 163.94C184.135 166.806 182.395 169.409 180.2 171.6L188.2 179.5ZM168 159.4L175.1 166.4C176.63 164.809 177.826 162.928 178.616 160.866C179.406 158.805 179.775 156.606 179.7 154.4C179.771 151.977 179.346 149.566 178.452 147.313C177.558 145.061 176.213 143.015 174.5 141.3C171.088 137.899 166.467 135.989 161.65 135.989C156.833 135.989 152.212 137.899 148.8 141.3C145.439 144.897 143.641 149.68 143.8 154.6C143.721 156.994 144.142 159.378 145.038 161.599C145.933 163.82 147.283 165.83 149 167.5C152.305 170.76 156.758 172.592 161.4 172.6C164.413 172.656 167.384 171.896 170 170.4L158.6 159.4H168Z" fill="black"/>
<path d="M224.8 166.8H204L198.6 178.6H190.7L214.7 127L237.9 178.6H229.9L224.8 166.8ZM221.8 159.9L214.6 143.4L207.1 159.9H221.8Z" fill="black"/>
</svg>
