<svg width="495" height="74" viewBox="0 0 495 74" fill="none" xmlns="http://www.w3.org/2000/svg">
<path d="M59.94 29.6002H15V14.8002H71.62V0.000216458H14.85C12.91 -0.0102835 10.988 0.361316 9.192 1.09382C7.396 1.82642 5.761 2.90552 4.383 4.26962C3.004 5.63372 1.907 7.25612 1.155 9.04402C0.402999 10.832 0.01 12.7506 0 14.6902V29.6902C0.008 31.6315 0.398002 33.5523 1.149 35.3425C1.9 37.1328 2.996 38.7575 4.375 40.1237C5.755 41.49 7.39 42.5709 9.187 43.3047C10.984 44.0385 12.909 44.4108 14.85 44.4002H59.85V59.2002H1.07001V74.0002H59.94C61.88 74.0108 63.802 73.6391 65.598 72.9066C67.394 72.174 69.029 71.0949 70.407 69.7308C71.786 68.3667 72.883 66.7444 73.635 64.9564C74.387 63.1684 74.78 61.2498 74.79 59.3102V44.3102C74.782 42.3689 74.392 40.4482 73.641 38.6579C72.89 36.8676 71.794 35.2429 70.415 33.8767C69.035 32.5105 67.4 31.4296 65.603 30.6958C63.806 29.962 61.881 29.5897 59.94 29.6002Z" fill="#9549FC"/>
<path d="M147 1.16357e-07H101.89C99.947 -0.0157999 98.02 0.3519 96.219 1.0821C94.419 1.8123 92.78 2.8905 91.397 4.2552C90.013 5.6198 88.913 7.2439 88.159 9.0345C87.404 10.8251 87.01 12.747 87 14.69V59.31C87.01 61.253 87.404 63.1749 88.159 64.9655C88.913 66.7561 90.013 68.3802 91.397 69.7448C92.78 71.1095 94.419 72.1877 96.219 72.9179C98.02 73.6481 99.947 74.0158 101.89 74H147C148.94 74.0105 150.862 73.6389 152.658 72.9064C154.454 72.1738 156.089 71.0947 157.467 69.7306C158.846 68.3665 159.943 66.7441 160.695 64.9562C161.447 63.1682 161.84 61.2496 161.85 59.31V14.69C161.84 12.7504 161.447 10.8318 160.695 9.0438C159.943 7.2559 158.846 5.6335 157.467 4.2694C156.089 2.9053 154.454 1.8262 152.658 1.0936C150.862 0.3611 148.94 -0.0104999 147 1.16357e-07ZM146.89 59.2H102V14.8H146.87L146.89 59.2Z" fill="#9549FC"/>
<path d="M305 0.000116821H261C259.06 -0.0103832 257.138 0.361217 255.342 1.09372C253.546 1.82632 251.911 2.90542 250.533 4.26952C249.154 5.63362 248.057 7.25602 247.305 9.04392C246.553 10.8319 246.16 12.7505 246.15 14.6901V74.0001H261.15V49.6901H304.95V74.0001H319.95V14.6901C319.94 12.742 319.544 10.8152 318.786 9.02062C318.027 7.22612 316.922 5.59932 315.532 4.23382C314.143 2.86842 312.497 1.79142 310.689 1.06482C308.881 0.338217 306.948 -0.0235832 305 0.000116821ZM304.89 34.8901H261.09V14.8001H304.89V34.8901Z" fill="#9549FC"/>
<path d="M480.15 0.000216458H436.15C434.21 -0.0102835 432.288 0.361316 430.492 1.09382C428.696 1.82642 427.062 2.90552 425.683 4.26962C424.304 5.63372 423.207 7.25612 422.455 9.04402C421.703 10.832 421.31 12.7506 421.3 14.6902V74.0002H436.3V49.6902H480V74.0002H495V14.6902C494.99 12.7506 494.597 10.832 493.845 9.04402C493.093 7.25612 491.996 5.63372 490.617 4.26962C489.238 2.90552 487.604 1.82642 485.808 1.09382C484.012 0.361316 482.09 -0.0102835 480.15 0.000216458ZM480 34.8902H436.2V14.8002H480V34.8902Z" fill="#9549FC"/>
<path d="M393 59.2001H387L365.55 6.20013C364.815 4.37163 363.55 2.80453 361.918 1.69993C360.286 0.595228 358.361 0.0033282 356.39 0.000128199H343.08C341.786 -0.0064718 340.504 0.241828 339.307 0.730728C338.109 1.21973 337.02 1.93973 336.1 2.84973C335.181 3.75983 334.45 4.84193 333.949 6.03453C333.448 7.22703 333.187 8.50663 333.18 9.80013V74.0001H348.18V14.8001H354.18L375.62 67.8001C376.367 69.6251 377.642 71.1858 379.281 72.283C380.919 73.3803 382.848 73.9641 384.82 73.9601H398.13C399.424 73.9667 400.706 73.7185 401.903 73.2295C403.101 72.7406 404.19 72.0205 405.11 71.1105C406.029 70.2005 406.76 69.1183 407.261 67.9258C407.762 66.7332 408.023 65.4537 408.03 64.1601V0.000128199H393V59.2001Z" fill="#9549FC"/>
<path d="M190.1 0H175.1V59.31C175.11 61.2539 175.505 63.1766 176.26 64.9678C177.015 66.7591 178.116 68.3836 179.5 69.7484C180.884 71.1132 182.525 72.1912 184.326 72.9208C186.128 73.6504 188.056 74.0171 190 74H235V59.2H190.1V0Z" fill="#9549FC"/>
</svg>
