<?xml version="1.0" standalone="no"?>

<svg version="1.0" xmlns="http://www.w3.org/2000/svg"
 width="2847.000000pt" height="1600.000000pt" viewBox="0 0 2847.000000 1600.000000"
 preserveAspectRatio="xMidYMid meet">

<g transform="translate(0.000000,1600.000000) scale(0.100000,-0.100000)"
fill="#000000" stroke="none">
<path d="M13930 13754 c-417 -28 -720 -74 -1090 -165 -1270 -313 -2423 -1078
-3214 -2133 -660 -880 -1044 -1901 -1137 -3021 -16 -193 -16 -677 0 -870 93
-1120 477 -2141 1137 -3021 322 -430 718 -826 1149 -1149 1181 -886 2634
-1282 4110 -1119 2035 225 3819 1548 4638 3439 339 785 497 1629 466 2498 -50
1394 -598 2708 -1555 3728 -1099 1171 -2627 1828 -4224 1817 -129 -1 -255 -3
-280 -4z m2815 -2874 c516 -58 831 -278 959 -673 61 -187 60 -162 63 -1234 l4
-983 -951 0 -950 0 0 -615 0 -615 -1480 0 -1480 0 0 -1040 0 -1040 -920 0
-920 0 0 2370 0 2370 900 0 900 0 0 735 0 735 1893 0 c1200 0 1925 -4 1982
-10z"/>
<path d="M12880 8710 l0 -710 1490 0 1490 0 0 710 0 710 -1490 0 -1490 0 0
-710z"/>
</g>
</svg>
